<?xml version="1.0" standalone="no"?>
<!DOCTYPE svg PUBLIC "-//W3C//DTD SVG 20010904//EN"
 "http://www.w3.org/TR/2001/REC-SVG-20010904/DTD/svg10.dtd">
<svg version="1.0" xmlns="http://www.w3.org/2000/svg"
 width="16.000000pt" height="16.000000pt" viewBox="0 0 16.000000 16.000000"
 preserveAspectRatio="xMidYMid meet">
<metadata>
Created by potrace 1.11, written by Peter Selinger 2001-2013
</metadata>
<g transform="translate(0.000000,16.000000) scale(0.006154,-0.006154)"
fill="#000000" stroke="none">
<path d="M1208 2495 c-2 -2 -21 -4 -43 -6 -22 -1 -44 -5 -50 -8 -5 -2 -20 -6
-33 -7 -14 -2 -32 -6 -41 -10 -9 -4 -25 -9 -36 -11 -37 -6 -246 -116 -261
-137 -8 -11 -14 -16 -14 -11 0 13 -46 -32 -106 -104 -29 -35 -51 -68 -48 -73
3 -4 0 -8 -5 -8 -6 0 -11 -7 -11 -15 0 -8 -4 -15 -10 -15 -5 0 -10 -9 -10 -19
0 -11 -4 -21 -9 -23 -6 -1 -12 -14 -14 -28 -3 -14 -10 -38 -16 -53 -19 -48
-27 -181 -17 -259 6 -42 18 -92 24 -103 4 -5 8 -19 9 -30 2 -11 8 -22 13 -23
6 -2 8 -8 4 -13 -3 -5 -1 -9 3 -9 5 0 14 -15 21 -32 6 -18 25 -47 42 -65 16
-18 30 -35 30 -38 0 -3 20 -26 45 -50 24 -25 42 -45 39 -45 -3 0 2 -7 10 -16
9 -8 30 -37 48 -62 17 -26 35 -48 40 -50 4 -2 8 -9 8 -16 0 -7 11 -30 25 -50
13 -20 22 -36 20 -36 -3 0 2 -17 11 -38 19 -46 27 -123 12 -119 -6 1 -22 -13
-35 -32 -28 -41 -31 -106 -6 -150 17 -29 17 -32 0 -60 -32 -54 -14 -156 32
-181 16 -8 17 -15 8 -54 -19 -85 16 -145 102 -174 18 -7 37 -10 41 -7 5 3 19
-9 31 -27 28 -42 65 -78 79 -78 5 0 10 -4 10 -8 0 -15 85 -38 135 -37 28 1 68
10 90 21 46 21 115 87 115 109 0 8 8 15 18 16 63 3 125 38 150 86 15 26 15 83
2 117 -8 21 -6 27 9 35 27 15 52 75 50 118 -3 44 -18 85 -30 77 -5 -2 -3 9 2
26 6 16 15 33 20 36 12 7 12 104 -1 104 -5 0 -6 7 -3 17 4 11 3 14 -5 9 -7 -4
-12 -1 -12 8 0 8 -9 20 -20 26 -15 8 -20 19 -17 43 4 41 35 122 64 169 12 20
24 42 25 49 2 6 15 25 30 42 15 17 26 33 25 36 -1 3 7 15 18 27 11 11 38 42
60 67 22 26 53 62 68 80 24 26 67 97 72 117 1 3 5 12 8 20 29 66 44 136 46
216 3 93 -15 214 -30 214 -5 0 -8 3 -8 8 4 20 -15 71 -24 65 -6 -4 -7 -1 -3 6
5 7 2 20 -6 29 -8 9 -20 29 -28 45 -7 15 -17 27 -22 27 -4 0 -8 5 -8 11 0 18
-91 108 -150 148 -64 44 -168 101 -178 99 -4 0 -24 7 -46 16 -21 10 -51 19
-67 21 -16 2 -32 6 -37 9 -22 13 -243 32 -254 21z m182 -199 c14 -3 35 -7 48
-10 12 -4 31 -8 43 -11 12 -2 27 -9 33 -15 7 -5 16 -7 19 -3 4 3 7 1 7 -5 0
-6 7 -9 15 -6 8 4 15 1 15 -5 0 -6 9 -11 20 -11 11 0 20 -3 20 -8 0 -4 14 -13
31 -21 16 -7 42 -25 56 -40 14 -14 22 -19 18 -11 -4 8 6 2 23 -15 16 -16 28
-32 26 -34 -1 -2 8 -13 21 -26 14 -12 22 -25 18 -28 -3 -4 2 -9 11 -13 9 -3
16 -12 16 -19 0 -6 7 -26 16 -44 9 -17 19 -46 22 -64 9 -44 8 -176 -2 -212 -4
-16 -8 -36 -8 -42 -1 -7 -5 -13 -10 -13 -4 0 -7 -3 -6 -7 2 -12 -24 -66 -42
-85 -8 -9 -31 -35 -50 -58 -19 -23 -46 -54 -60 -69 -55 -61 -80 -91 -75 -91 2
0 -13 -25 -35 -57 -22 -31 -40 -62 -40 -70 0 -7 -4 -13 -10 -13 -5 0 -9 -3 -8
-7 1 -5 -4 -21 -11 -38 -11 -25 -48 -144 -50 -160 -1 -3 -1 -13 -1 -23 0 -16
-14 -17 -179 -17 -99 0 -182 3 -185 5 -3 3 -7 19 -10 35 -12 64 -37 147 -51
169 -8 12 -12 26 -8 29 3 4 1 7 -6 7 -7 0 -9 5 -6 10 3 6 2 10 -4 10 -6 0 -13
11 -17 25 -3 14 -10 25 -15 25 -5 0 -9 7 -9 15 0 8 -5 15 -11 15 -5 0 -8 4 -5
9 3 5 -1 12 -9 15 -8 3 -14 9 -13 13 3 9 -9 25 -54 72 -15 16 -24 31 -21 35 4
3 -2 6 -12 6 -10 0 -16 3 -13 6 3 3 -9 20 -26 37 -34 34 -101 127 -91 127 3 0
-1 10 -10 23 -8 12 -16 32 -18 42 -1 11 -5 25 -8 30 -3 6 -6 45 -7 89 0 72 9
119 36 186 5 14 10 29 10 33 0 5 9 15 19 23 10 7 14 14 10 14 -4 0 -3 6 3 13
5 6 20 24 31 40 11 15 25 25 30 21 5 -3 8 -2 7 3 -2 4 0 8 3 8 3 0 17 12 31
27 14 15 28 25 31 21 4 -3 7 -1 7 6 0 7 5 9 10 6 6 -3 13 1 16 9 3 9 10 14 14
11 4 -3 13 2 20 10 7 8 16 13 20 10 5 -3 11 -1 15 5 4 6 11 8 16 5 5 -4 9 -1
9 4 0 6 8 11 18 11 10 0 22 3 26 7 3 4 12 8 19 9 7 2 23 6 37 9 14 3 43 8 64
11 22 2 41 5 43 7 5 5 143 0 173 -7z"/>
<path d="M1265 2039 c-4 -5 -11 -7 -16 -3 -5 3 -9 2 -8 -3 1 -4 -2 -17 -6 -27
-10 -23 23 -50 64 -53 56 -3 81 -8 81 -16 0 -4 4 -5 10 -2 11 7 70 -22 88 -44
10 -12 12 -13 6 -1 -4 9 2 7 13 -5 11 -11 19 -23 16 -27 -2 -5 0 -8 4 -8 5 0
10 -10 10 -22 3 -30 22 -66 40 -72 18 -7 53 28 53 53 0 11 -5 32 -12 48 -6 15
-10 32 -10 36 1 4 -5 10 -13 13 -8 3 -13 9 -12 13 2 3 -4 14 -15 24 -10 9 -18
15 -18 12 0 -3 -12 5 -27 19 -15 14 -30 23 -35 20 -4 -3 -8 0 -8 7 0 7 -3 10
-6 6 -4 -3 -19 0 -34 8 -15 8 -49 17 -76 21 -27 3 -57 8 -66 9 -10 2 -20 -1
-23 -6z"/>
</g>
</svg>
